<svg width="91" height="104" viewBox="0 0 91 104" fill="none" xmlns="http://www.w3.org/2000/svg">
<path d="M45.3686 75.2275V83.0201" stroke="#C49B6F" stroke-width="3" stroke-linecap="round" stroke-linejoin="round"/>
<path d="M45.3686 36.5735V43.826" stroke="#C49B6F" stroke-width="3" stroke-linecap="round" stroke-linejoin="round"/>
<path d="M45.3686 102C70.6566 102 88.7194 92.4329 88.7194 71.1385C88.7194 47.9924 77.8817 32.5616 56.2063 20.9886L64.732 9.26121C65.1651 8.49176 65.4 7.61371 65.413 6.71606C65.4259 5.8184 65.2163 4.93306 64.8056 4.14976C64.3948 3.36646 63.7974 2.71305 63.0739 2.25576C62.3504 1.79847 61.5266 1.55355 60.6859 1.54584H30.0514C29.2107 1.55355 28.3869 1.79847 27.6634 2.25576C26.9399 2.71305 26.3425 3.36646 25.9317 4.14976C25.521 4.93306 25.3114 5.8184 25.3243 6.71606C25.3372 7.61371 25.5722 8.49176 26.0053 9.26121L34.5309 21.0657C12.8556 32.7159 2.01788 48.1467 2.01788 71.2928C2.01788 92.4329 20.0807 102 45.3686 102Z" stroke="#C49B6F" stroke-width="3" stroke-linecap="round" stroke-linejoin="round"/>
<path d="M38.1436 71.6785C39.0252 72.796 40.1347 73.6829 41.3871 74.2714C42.6396 74.8598 44.0016 75.1342 45.3687 75.0733C47.4582 75.2254 49.5216 74.5064 51.1251 73.0676C52.7285 71.6287 53.747 69.5821 53.9666 67.3579C53.747 65.1337 52.7285 63.087 51.1251 61.6482C49.5216 60.2094 47.4582 59.4904 45.3687 59.6425C43.2791 59.7946 41.2158 59.0757 39.6123 57.6368C38.0089 56.198 36.9903 54.1513 36.7708 51.9271C36.9727 49.6952 37.9864 47.6368 39.594 46.1941C41.2016 44.7515 43.275 44.0398 45.3687 44.2118C46.7117 44.124 48.0563 44.3553 49.3056 44.8889C50.5549 45.4226 51.6779 46.2453 52.5938 47.2979" stroke="#C49B6F" stroke-width="3" stroke-linecap="round" stroke-linejoin="round"/>
</svg>
