<svg width="96" height="103" viewBox="0 0 96 103" fill="none" xmlns="http://www.w3.org/2000/svg">
<path d="M23.3121 2H5.55201C3.59029 2 2 3.69819 2 5.79302V96.8256C2 98.9204 3.59029 100.619 5.55201 100.619H23.3121C25.2738 100.619 26.8641 98.9204 26.8641 96.8256V5.79302C26.8641 3.69819 25.2738 2 23.3121 2Z" stroke="#C49B6F" stroke-width="3" stroke-linecap="round" stroke-linejoin="round"/>
<path d="M48.1761 17.1721H30.4161C28.4544 17.1721 26.8641 18.8703 26.8641 20.9651V96.8256C26.8641 98.9205 28.4544 100.619 30.4161 100.619H48.1761C50.1378 100.619 51.7281 98.9205 51.7281 96.8256V20.9651C51.7281 18.8703 50.1378 17.1721 48.1761 17.1721Z" stroke="#C49B6F" stroke-width="3" stroke-linecap="round" stroke-linejoin="round"/>
<path d="M71.9501 15.0953L58.1671 18.7786C56.2641 19.2872 55.1074 21.3469 55.5837 23.379L72.83 96.9701C73.3063 99.0022 75.235 100.237 77.1381 99.7288L90.9211 96.0455C92.8241 95.5369 93.9807 93.4773 93.5045 91.4451L76.2582 17.8541C75.7819 15.8219 73.8531 14.5868 71.9501 15.0953Z" stroke="#C49B6F" stroke-width="3" stroke-linecap="round" stroke-linejoin="round"/>
<path d="M2 74.0676H26.8641" stroke="#C49B6F" stroke-width="3" stroke-linecap="round" stroke-linejoin="round"/>
<path d="M26.8641 66.4813H51.7281" stroke="#C49B6F" stroke-width="3" stroke-linecap="round" stroke-linejoin="round"/>
<path d="M69.4882 81.6537L89.9477 76.1918" stroke="#C49B6F" stroke-width="3" stroke-linecap="round" stroke-linejoin="round"/>
</svg>
