<svg width="101" height="101" viewBox="0 0 101 101" fill="none" xmlns="http://www.w3.org/2000/svg">
<path d="M98.4842 25.0738C98.3401 24.2921 98.0332 23.5495 97.5834 22.8941C97.1336 22.2388 96.5511 21.6853 95.8735 21.2697L80.9553 36.1879C80.2595 36.9098 79.4253 37.484 78.5026 37.8762C77.5798 38.2684 76.5874 38.4706 75.5848 38.4706C74.5821 38.4706 73.5898 38.2684 72.667 37.8762C71.7443 37.484 70.9101 36.9098 70.2142 36.1879L64.5453 31.1157C63.1786 29.7214 62.4131 27.8468 62.4131 25.8943C62.4131 23.9419 63.1786 22.0673 64.5453 20.673L79.4635 5.75476C79.1382 4.99047 78.6488 4.30702 78.0301 3.75277C77.4114 3.19852 76.6785 2.787 75.8832 2.54734C70.678 1.50933 65.286 1.95366 60.321 3.82973C55.356 5.70581 51.0174 8.93825 47.7994 13.159C44.5813 17.3798 42.613 22.4194 42.1185 27.7039C41.6241 32.9885 42.6233 38.3057 45.0025 43.0502L4.27582 83.404C3.56537 84.0986 3.00087 84.9283 2.61548 85.8441C2.23008 86.76 2.03156 87.7436 2.03156 88.7372C2.03156 89.7309 2.23008 90.7145 2.61548 91.6303C3.00087 92.5462 3.56537 93.3758 4.27582 94.0705L6.96109 96.7558C7.65577 97.4662 8.48539 98.0307 9.40124 98.4161C10.3171 98.8015 11.3007 99 12.2943 99C13.288 99 14.2716 98.8015 15.1875 98.4161C16.1033 98.0307 16.9329 97.4662 17.6276 96.7558L58.3543 56.1037C63.1001 58.3647 68.38 59.2652 73.607 58.7048C78.8339 58.1445 83.803 56.1453 87.9617 52.9297C92.1204 49.7141 95.3057 45.408 97.1633 40.4902C99.021 35.5725 99.4782 30.2359 98.4842 25.0738V25.0738Z" stroke="#C49B6F" stroke-width="3" stroke-linecap="round" stroke-linejoin="round"/>
</svg>
